<svg width="144" height="144" viewBox="0 0 144 144" fill="none" xmlns="http://www.w3.org/2000/svg">
  <rect width="144" height="144" rx="24" fill="#2563eb"/>
  <path d="M72 24C45.4903 24 24 45.4903 24 72C24 98.5097 45.4903 120 72 120C98.5097 120 120 98.5097 120 72C120 45.4903 98.5097 24 72 24ZM72 108C50.9086 108 36 93.0914 36 72C36 50.9086 50.9086 36 72 36C93.0914 36 108 50.9086 108 72C108 93.0914 93.0914 108 72 108Z" fill="white"/>
  <path d="M72 48C66.4772 48 62 52.4772 62 58V74C62 79.5228 66.4772 84 72 84C77.5228 84 82 79.5228 82 74V58C82 52.4772 77.5228 48 72 48Z" fill="white"/>
  <path d="M72 90C69.7909 90 68 91.7909 68 94C68 96.2091 69.7909 98 72 98C74.2091 98 76 96.2091 76 94C76 91.7909 74.2091 90 72 90Z" fill="white"/>
</svg>
